<svg id="bf789bda-a99e-479a-ba8f-1267a22f4519" data-name="Layer 1" xmlns="http://www.w3.org/2000/svg" viewBox="0 0 1143 680"><defs><style>.e5a3b7db-2d61-4cf8-9b82-401b5b3d2521,.e7caf177-0f59-4562-9047-57380fc2c119{fill:#f2f2f2;}.b73c8db1-db87-4d2d-8621-f95c8e8755ee,.b8eec234-02f0-459a-8972-59d8ad790d55{fill-opacity:0.1;}.b4e91e01-ea19-45b2-bdf6-31afd1197729,.b87c39f0-b867-4561-a9d5-5331be49dc9e{fill:#afb9c5;}.a20b38f8-94d9-43a2-b0eb-1fefd7ca4cd0,.a2458444-ee4f-40ae-ab62-7d1c8fa39bcc,.a6590cde-850d-4539-9373-6ca41ea13a0f,.a7eb8708-4482-4483-9ccd-57ff938925cb,.a8255ee8-7e30-414e-ae00-e638dc28dd1d,.a82a8a32-c3f1-467a-9411-49b1bb0c9d5e,.aa3b96ee-a48a-4699-a54f-60bff61b9193,.ac7ea7b7-7f24-42ce-91c9-6a7e167a0817,.ae3aee13-7cc8-4c62-8cb4-aadb014bac29,.ae7d049f-f082-4043-8ff9-fbc037e16d74,.b0dbb8e2-a498-431a-8b5e-040567fd2164,.b0f39ac1-3dde-4917-82ef-432947e20aac,.b126819d-25de-45dc-9480-7f908d1d2277,.b2658a52-ad2b-46c3-a449-584315bf21e6,.b614c1da-358b-4aea-98ae-d9d258a9f6b0,.b6fbe26e-3ca8-4847-8313-21d377f087b3,.b73c8db1-db87-4d2d-8621-f95c8e8755ee,.b74e2caf-0e5b-4c32-a11c-5e1ccb49cd49,.b75763f7-8972-4667-80ef-4ab2114db744,.b87c39f0-b867-4561-a9d5-5331be49dc9e,.babb6271-eb9d-4c3a-89ae-f1a92ebc2f52,.bbe5a9fd-00ef-45ec-9c88-ef04effddb7c,.bca2c1af-19c6-4332-9e3d-43e2c71aa921,.bcf526b5-fb28-4714-a38f-df909b4950fd,.bdd74164-43b4-4763-a460-640a53bf0641,.befbd76f-79fe-4ae1-a7bf-882b37b8c1c7,.e1b08908-0ce9-4a72-9033-86ac026ef919,.e277d6f0-f69c-4fc5-a393-3dec2c4b2793,.e7caf177-0f59-4562-9047-57380fc2c119,.e9f04bfe-750a-42ec-9a1f-1167abb43bb6,.edda7eec-cd57-47df-ac7c-267d3b5aa302,.f20b3269-f817-41c7-8f5d-8a7a64972622,.f422e938-bc36-4e44-8398-e2a660c11bab,.f68861f7-ccea-45ee-b9fd-e794aff67bc3,.f99aa335-c1e5-4caf-af26-4e4038aeb92b,.fd6c168d-6dc2-4ede-9d81-0a3055af3768,.fdd0a761-ff41-49f6-816c-3af4c37830b5{fill-rule:evenodd;}.b42d3924-5dbd-4fea-af0f-01bbd90787cd,.bdd74164-43b4-4763-a460-640a53bf0641{fill:#c5cfd6;}.ac7b610e-2201-4d83-b991-e1aa2fd26c33{opacity:0.35;}.a82a8a32-c3f1-467a-9411-49b1bb0c9d5e,.af82c1e2-42ea-489f-b085-ccc47f9009b5{fill:#dde3e9;}.f795e7e2-7984-42c3-9ebb-7e6fa13cb48b{opacity:0.7;}.a9896f1e-2b15-4750-ade4-1661edb28cf6{fill:none;stroke:#cbcbcb;stroke-width:8px;}.befbd76f-79fe-4ae1-a7bf-882b37b8c1c7{fill:#89c5cc;}.b0dbb8e2-a498-431a-8b5e-040567fd2164{fill:#c1dee2;}.a7eb8708-4482-4483-9ccd-57ff938925cb{fill:#69a1ac;}.a617d9bb-aed8-4cc2-bb96-bd9e529b0de4{fill:#fff;}.e9f04bfe-750a-42ec-9a1f-1167abb43bb6{fill:#915b3c;}.a2458444-ee4f-40ae-ab62-7d1c8fa39bcc{fill:#b28b67;}.a6590cde-850d-4539-9373-6ca41ea13a0f{fill:#2f3676;}.bcf526b5-fb28-4714-a38f-df909b4950fd{fill:#e4e4e4;}.b75763f7-8972-4667-80ef-4ab2114db744{fill:#ab827b;}.ae7d049f-f082-4043-8ff9-fbc037e16d74{fill:#e8ba92;}.b74e2caf-0e5b-4c32-a11c-5e1ccb49cd49{fill:#ffdaad;}.f99aa335-c1e5-4caf-af26-4e4038aeb92b{fill:#ebc5a2;}.fd6c168d-6dc2-4ede-9d81-0a3055af3768{fill:#c2ba80;}.b6fbe26e-3ca8-4847-8313-21d377f087b3{fill:#535676;}.b2658a52-ad2b-46c3-a449-584315bf21e6{fill:#997659;}.babb6271-eb9d-4c3a-89ae-f1a92ebc2f52{fill:#8b8eab;}.f68861f7-ccea-45ee-b9fd-e794aff67bc3{fill:#dbb3b1;}.f20b3269-f817-41c7-8f5d-8a7a64972622{fill:#ffd5d2;}.edda7eec-cd57-47df-ac7c-267d3b5aa302{fill:#965836;}.ae3aee13-7cc8-4c62-8cb4-aadb014bac29{fill:#291101;}.bbe5a9fd-00ef-45ec-9c88-ef04effddb7c{fill:#9b854c;}.b614c1da-358b-4aea-98ae-d9d258a9f6b0{fill:#945235;}.a8255ee8-7e30-414e-ae00-e638dc28dd1d{fill:#323337;}.aa3b96ee-a48a-4699-a54f-60bff61b9193{fill:#b2c7d6;}.ac7ea7b7-7f24-42ce-91c9-6a7e167a0817{fill:#c6986d;}.f422e938-bc36-4e44-8398-e2a660c11bab{fill:#9396cf;}.bca2c1af-19c6-4332-9e3d-43e2c71aa921{fill:#adb7ff;}.fdd0a761-ff41-49f6-816c-3af4c37830b5{fill:#b0c4a3;}.a20b38f8-94d9-43a2-b0eb-1fefd7ca4cd0{fill:#bcdeb6;}.b126819d-25de-45dc-9480-7f908d1d2277{fill:#2c2c2c;}.e1b08908-0ce9-4a72-9033-86ac026ef919{fill:#8991dc;}.b0f39ac1-3dde-4917-82ef-432947e20aac{fill-opacity:0.2;}</style></defs><g id="a283ea3c-ab93-43ca-b1a0-968d0c957dae" data-name="Scene/Home"><g id="b35b241d-b4fe-4884-bdf5-4ac710ee6f53" data-name="Clock"><circle id="ab494b97-e8ef-49c9-aec0-ba80e77fdd49" data-name="Clock-Frame" class="e5a3b7db-2d61-4cf8-9b82-401b5b3d2521" cx="986.59" cy="133" r="53"/><circle id="b8a9cf40-2be2-4bae-b7d8-a945edcffe48" data-name="Time" class="b8eec234-02f0-459a-8972-59d8ad790d55" cx="986.59" cy="91" r="3"/><circle id="bbb3f6aa-7f23-4b06-9f9e-377e49041f7e" data-name="Time" class="b8eec234-02f0-459a-8972-59d8ad790d55" cx="944.59" cy="133" r="3"/><circle id="bbdb072c-ffb7-4bf1-9f5a-d58e29e0d891" data-name="Time" class="b8eec234-02f0-459a-8972-59d8ad790d55" cx="1028.59" cy="133" r="3"/><circle id="a5a3ddfe-8c52-4213-b813-38839260bfcc" data-name="Time" class="b8eec234-02f0-459a-8972-59d8ad790d55" cx="986.59" cy="175" r="3"/><polygon id="e13f3af9-6218-46d6-8d15-f4b9053d2e32" data-name="Hand" class="b87c39f0-b867-4561-a9d5-5331be49dc9e" points="986.59 97 988.59 132 984.59 132 986.59 97"/><polygon id="bae19678-2a69-47a9-b852-1b3c5ad1e985" data-name="Hand" class="b87c39f0-b867-4561-a9d5-5331be49dc9e" points="1004.29 150.7 985.91 135.14 988.74 132.31 1004.29 150.7"/><circle id="a3ceac0e-9b1c-4cf1-8599-d01f6950fbec" data-name="Time" class="b42d3924-5dbd-4fea-af0f-01bbd90787cd" cx="986.59" cy="133" r="4"/></g><g id="b4800184-2e4e-4fec-a6af-12166afd3ec1" data-name="Background-Shape-2" class="ac7b610e-2201-4d83-b991-e1aa2fd26c33"><path id="bf0ffdb5-32f1-4607-94b4-36a12994c609" data-name="Background-Shape" class="e7caf177-0f59-4562-9047-57380fc2c119" d="M930.39,411.38c-6.9-77-805.43-220.76-874.1-147.78s-2.66,209.94,141.27,245S937.28,488.43,930.39,411.38Z"/><path id="a1e3e040-c6f4-4b36-ab67-ceb210d7b164" data-name="Background-Shape" class="a82a8a32-c3f1-467a-9411-49b1bb0c9d5e" d="M202.28,423.45C227.08,285.81,799.71,81,920,267s264.23,229.41,18.22,259.18C692,556,190.48,488.9,202.28,423.45Z"/></g><g id="a7f0ddf0-0b80-471e-8a86-cc0000539595" data-name="Hanging-Lamp"><g id="f345abfc-e65f-4bc1-94f4-9be5a7d3233b" data-name="Light"><ellipse id="e5d970e5-a9e2-4c2b-bea3-a70c430f5d24" data-name="Hanging-Lamp-Light" class="e5a3b7db-2d61-4cf8-9b82-401b5b3d2521" cx="74.5" cy="187.17" rx="42.5" ry="22.5"/><path id="a38d842f-a434-4bf6-a50e-9675a4f577a6" data-name="Hanging-Lamp" class="a82a8a32-c3f1-467a-9411-49b1bb0c9d5e" d="M124,202.67c0-27.61-22.16-50-49.5-50S25,175.06,25,202.67"/></g><rect id="a256cf27-d4cb-4a3e-b01a-8500dd7f5a9f" data-name="Wire" class="af82c1e2-42ea-489f-b085-ccc47f9009b5" x="72" width="5" height="160"/></g><g id="b693ca21-a312-4e11-832f-4e0c47875053" data-name="Hanging-Lamp" class="f795e7e2-7984-42c3-9ebb-7e6fa13cb48b"><g id="a39aeb13-b570-4af2-97d3-051300a53f3d" data-name="Light"><ellipse id="b1d45419-b68e-4380-b6ac-406015ce265e" data-name="Hanging-Lamp-Light" class="e5a3b7db-2d61-4cf8-9b82-401b5b3d2521" cx="152" cy="140.84" rx="31.77" ry="18.16"/><path id="aa955a34-8251-415f-a38c-242c4cbcc242" data-name="Hanging-Lamp" class="a82a8a32-c3f1-467a-9411-49b1bb0c9d5e" d="M189,153.35c0-22.28-16.57-40.35-37-40.35s-37,18.07-37,40.35"/></g><rect id="a3a5850a-1c74-48cc-94f6-ec1be7606f7d" data-name="Wire" class="af82c1e2-42ea-489f-b085-ccc47f9009b5" x="150" width="5" height="136"/></g><g id="b617ea2b-8245-4de9-970e-2d3930070429" data-name="Lamp"><path id="ee1b8f76-6750-4f7a-b512-6e876f1bdaa6" data-name="Body" class="a9896f1e-2b15-4750-ade4-1661edb28cf6" d="M1012.59,229.24l18.57-18.58a8,8,0,0,1,11.32,0h0l49.43,49.45a16,16,0,0,1,4.68,11.31V599"/><rect id="e68e4d9a-286c-4f0a-8a71-2e77ba2254f5" data-name="Lamp-Base" class="b4e91e01-ea19-45b2-bdf6-31afd1197729" x="1066.59" y="598" width="59" height="7" rx="3"/><g id="e409b59a-6873-43d0-9fd3-9225d153df38" data-name="Lamp-Top"><path id="e73cd591-2061-43df-bceb-deb100efa495" data-name="Lamp" class="bdd74164-43b4-4763-a460-640a53bf0641" d="M1023.76,218.33h0a33,33,0,0,1,0,46.67L1004,284.8l-46.67-46.67,19.8-19.8A33,33,0,0,1,1023.76,218.33Z"/><ellipse id="a0089d67-39e8-402e-912e-f3cd26b35fa8" data-name="Lamp" class="e5a3b7db-2d61-4cf8-9b82-401b5b3d2521" cx="981.42" cy="260.93" rx="6.5" ry="33" transform="translate(102.94 770.39) rotate(-45)"/></g></g><g id="bb710943-b67a-4ccd-9449-2f707df051fe" data-name="Big-Leaf-Plant"><g id="a26817d1-b063-49a7-b4e2-994451b3db99" data-name="Big-Ass-Leaf"><path id="e6660db7-b893-47cb-8529-0c8b13cc5c63" data-name="leaf" class="a82a8a32-c3f1-467a-9411-49b1bb0c9d5e" d="M63.26,372.17a16.9,16.9,0,0,1,8.58.91c5.67,2.4,7.28,9.09,7.2,14.53-.08,5.86-1.33,12.25,3.13,17,2,2.17,4.59,3.83,6.6,6a28.49,28.49,0,0,1,5.07,8c2.29,5.32,3.42,11.59,1.32,17.17-1.84,4.92-6.48,9.36-5.48,15,1,5.83,6.93,10.29,10.61,14.64,4.16,4.92,8,11.21,8.63,17.66.6,6.18-2.09,12.43-6.22,17.1C94.45,509.45,82.05,514,69.54,514c-5.31,0-11.32-.25-15.9-3.11a8.74,8.74,0,0,1-3-3.24,10.43,10.43,0,0,0-2.9-2.91,17.26,17.26,0,0,1-5.54-7.39c-4.54-11.24-.91-25.13,5.44-35.11,1.51-2.36,2.74-4.63,2-7.45s-2.64-5.59-4.3-8.12a65.26,65.26,0,0,1-4.79-7.58,17.21,17.21,0,0,1-1.48-8.89,30.11,30.11,0,0,1,6.51-15.86C49,409.83,53,405.52,53,399.61c0-6.25-4.17-11.82-2.39-18.18a12.12,12.12,0,0,1,4.61-6.92C57.54,373,60.56,372.5,63.26,372.17Z"/><path id="a55750a8-425a-48f2-918c-27cc5801597d" data-name="middle-thing" class="bdd74164-43b4-4763-a460-640a53bf0641" d="M61.39,382.18a1.44,1.44,0,0,1,1.83-1.13c1,.29,1,1.26,1,2.12a28.31,28.31,0,0,0,.93,7.77c1.32,5.33,3.76,10.25,5.7,15.37s2.83,10.4,1.7,15.81c-1.07,5.11-2.75,10.08-3.84,15.2-1,4.5-2,9.25-.52,13.75,1.41,4.32,4.53,7.85,6.78,11.76a55.41,55.41,0,0,1,7,26.31A48.83,48.83,0,0,1,81,502c-.57,2.43-1.34,5.7-3.41,7.37-1,.77-2.6,1-3.4-.1s-.1-2.73.14-3.87a58.71,58.71,0,0,0,1-15A54.23,54.23,0,0,0,73,476a48.57,48.57,0,0,0-6.12-12c-2.59-3.84-5.28-7.69-6.35-12.24s-.2-9.33,1-13.86c1.25-4.8,2.88-9.46,4.57-14.12a24.75,24.75,0,0,0,1.32-13.61C65.57,400.79,60.76,392,61.39,382.18Z"/></g><g id="f6e59ad1-c90b-4731-8959-0881557d76a5" data-name="Big-Ass-Leaf"><path id="ae63b421-7360-46d3-b04e-8118f45c7133" data-name="leaf" class="a82a8a32-c3f1-467a-9411-49b1bb0c9d5e" d="M138.89,383.58a21.49,21.49,0,0,1,9.59,5.54c5.38,5.79,3.73,14.54.76,20.93-3.19,6.88-8,13.8-5.3,21.69,1.25,3.63,3.36,6.92,4.55,10.58a36.81,36.81,0,0,1,1.75,12.05c-.13,7.49-2.12,15.48-7.53,21-4.76,4.86-12.55,7.7-14.33,14.84-1.86,7.44,2.68,15.78,4.7,22.83,2.28,8,3.45,17.41.78,25.37-2.56,7.62-9,13.62-16.33,17-14.61,6.75-31.58,5.71-46.23-.83-6.23-2.78-13.15-6.19-17-12a11.31,11.31,0,0,1-1.8-5.4,13.57,13.57,0,0,0-1.88-5A22.24,22.24,0,0,1,48,520.66C48.63,505,60.23,490.46,73,482c3-2,5.66-4.06,6.29-7.77.66-3.87-.14-8-.75-11.84s-1.54-7.6-1.61-11.46a22.38,22.38,0,0,1,3-11.28c3.6-6.65,9.38-11.69,16-15.37,6.4-3.55,13.39-6.56,16.52-13.53,3.32-7.4,1.36-16.16,6.81-22.76,2.26-2.73,5.43-5.15,9.06-5.78S135.56,382.57,138.89,383.58Z"/><path id="e768318e-a8a7-438c-a7c3-797b2fc64c9c" data-name="middle-thing" class="bdd74164-43b4-4763-a460-640a53bf0641" d="M131.65,395.81a1.84,1.84,0,0,1,2.74-.37c1.05.88.52,2,0,3a37.34,37.34,0,0,0-3,9.7c-1.25,7-1,14.1-1.39,21.18s-2.13,13.81-6.29,19.63c-3.92,5.48-8.49,10.49-12.44,16-3.49,4.83-7.18,9.92-7.81,16-.62,5.87,1.19,11.68,1.77,17.48,1.2,12-1.09,23.74-5.6,34.83a64.19,64.19,0,0,1-7.87,14.67c-1.94,2.57-4.55,6.05-7.86,6.94-1.52.41-3.57-.13-3.92-1.91s1.32-3.28,2.2-4.5a76.78,76.78,0,0,0,9-17.26A71.22,71.22,0,0,0,96.05,513a63.55,63.55,0,0,0-.89-17.35c-1-5.91-2.15-11.88-1-17.83s4.65-11.15,8.4-15.9c4-5,8.32-9.69,12.74-14.33A32.34,32.34,0,0,0,124,432.13C126.79,420.05,125.79,407.08,131.65,395.81Z"/></g><g id="a23ade2f-138b-49d6-a94c-47878b86f93a" data-name="Big-Ass-Leaf"><path id="f743c5d1-18ea-4e28-9228-6845550dc165" data-name="leaf" class="bdd74164-43b4-4763-a460-640a53bf0641" d="M29.31,428c5.89,0,11.07,3.12,14.64,7.56,4.18,5.19,5,11.53,6.72,17.71a15.83,15.83,0,0,0,4.85,8.23c2.31,1.9,5.25,2.28,8,3.21A18.74,18.74,0,0,1,75.32,476.5c2.16,6.66-.13,13.37.27,20.12.36,6.2,6.47,10.07,11.38,13s9.22,5.67,10.68,11.37c1.55,6.06,2.07,12.81-.08,18.79-3.57,10-14,14.34-24.11,15-9.17.62-20.69-.35-27.57-7-4.12-4-5.61-9.55-5.42-15.08a45.2,45.2,0,0,1,1.68-10.19,46.64,46.64,0,0,0,1.71-7.14c.64-6.49-5.36-7.73-10.46-9.51a25,25,0,0,1-14.18-12.49c-2.93-5.55-4.17-11.77-2.41-17.88a21,21,0,0,1,4.75-8.35c1-1.05,2.35-1.94,3.23-3.05a4.13,4.13,0,0,0,.36-3.6c-1.31-5.62-5.39-10.27-6.85-15.88C17,439.61,17.77,433.3,22.4,430A12.12,12.12,0,0,1,29.31,428Z"/><path id="bb58a7b6-9ff8-4e14-a867-a6e102e6af71" data-name="middle-thing" class="b87c39f0-b867-4561-a9d5-5331be49dc9e" d="M37.34,442.64c6.25,6.66,7.94,15.68,8.44,24.44.28,4.9,0,10.08,1.43,14.84,1.24,4.07,4.13,7.19,7.11,10.13C60.32,498,67,504,68.77,512.57c1,5,.33,10.23,1.75,15.21a42.06,42.06,0,0,0,6.35,12.79c2.23,3.07,5.13,5.43,7.57,8.3.75.87,1.81,2.16,1.51,3.4-.36,1.44-2.21,1.9-3.51,1.67-3-.53-5.62-3.44-7.61-5.55a47.85,47.85,0,0,1-7.41-10.16A42.67,42.67,0,0,1,62.61,525c-.79-4.83-.4-9.86-2.22-14.49-3.07-7.8-10.5-12.4-15.88-18.48-6.7-7.57-5.7-17-5-26.3.38-5.12.76-10.9-1.83-15.57-1-1.78-3.19-3.45-3.61-5.47C33.66,442.86,35.78,441,37.34,442.64Z"/></g><path id="bfdb749b-a2d5-4f31-a472-4967abe275f2" data-name="Base" class="befbd76f-79fe-4ae1-a7bf-882b37b8c1c7" d="M44,552c0,38.06,6.21,58,39,58s39-19.94,39-58Z"/></g><g id="ff4a7886-9a2f-4f57-b6c2-d8a381588e99" data-name="Table"><g id="a2b6f377-8ee5-4a02-bf6b-d49a53e5eadc" data-name="Lamp"><rect id="be0538fd-32f9-4afa-ab00-4a44273c5eba" data-name="Lamp-Base" class="b4e91e01-ea19-45b2-bdf6-31afd1197729" x="179" y="497" width="38" height="9" rx="2"/><path id="ae711c18-27d8-48eb-92c0-073e528f5806" data-name="Lamp-Body" class="a82a8a32-c3f1-467a-9411-49b1bb0c9d5e" d="M189,468a167.86,167.86,0,0,0,7.22-44h4.56A167.86,167.86,0,0,0,208,468h6.5a15.5,15.5,0,0,1,0,31h-33a15.5,15.5,0,0,1,0-31Z"/><path id="f47c77f0-dc77-43b7-bde8-f76322740655" data-name="Shade" class="bdd74164-43b4-4763-a460-640a53bf0641" d="M162.62,354.68Q179.81,353,197,353t34.38,1.68L236,434.13Q216.5,436,197,436t-39-1.87Z"/></g><path class="e7caf177-0f59-4562-9047-57380fc2c119" d="M156,506H260V610H239V528H156v82H135V506Z"/></g><g id="e789f187-20a4-486e-bf27-715b339c9dcf" data-name="Plant"><g id="b8f523b4-393d-4d00-bf1f-40e80b5a60a9" data-name="Succulents"><path id="bf3edf69-8026-42a1-87b1-569b2fd4d617" data-name="Thi-Succs!" class="b0dbb8e2-a498-431a-8b5e-040567fd2164" d="M982,323.21c8.84,21,23.85,35.57,31.81,57.39,4.71,12.95,6.68,27,6.8,41.43.06,7.83-.07,15.66-.11,23.49,0,7.64-.24,15.22-.89,22.81s-1.38,15.16-1.7,22.83c-.25,6-.37,12.93-2.4,18.38-1.61,4.34-5.7,5-6.79-.28a42.14,42.14,0,0,1-.46-9.2c.08-3.85.31-7.7.42-11.56.46-15.46-.13-30.93.18-46.41.3-15.12,2.25-30.22.1-45.24-1.78-12.4-6.29-23.05-11.47-33.26-5-9.82-10.42-19.4-13.79-30.58a53.56,53.56,0,0,1-2.08-10C981.75,323,981.88,323,982,323.21Z"/><path id="aa47f0f7-c3e7-47f4-bb09-85988d0ed937" data-name="Thi-Succs!" class="befbd76f-79fe-4ae1-a7bf-882b37b8c1c7" d="M979.57,364.62c1.75,1.26,2.72,3.11,3.91,4.93,1.47,2.27,3.19,4.31,4.66,6.58,3.07,4.73,5.76,9.75,8.56,14.67A96.05,96.05,0,0,1,1008,420.89c2.07,11.2,2.63,22.76,3.49,34.12.92,12.05,1.85,24.18,2,36.27.06,5.42.35,11.17-.3,16.54-.41,3.35-1.92,6.21-5.32,6.18-7.24-.06-10.64-8.07-12.06-14.65-2.09-9.68-2.5-20-2.17-29.86.4-11.93,2.47-23.69,3.36-35.58,1-12.59.42-25-3.91-36.8-2.19-6-4.72-11.84-7-17.78a57.3,57.3,0,0,0-3.08-7.5c-1.45-2.62-3.26-5-4.41-7.83Z"/><path id="ae6c8da8-b144-439b-b603-3f95c6ae8298" data-name="Thi-Succs!" class="b0dbb8e2-a498-431a-8b5e-040567fd2164" d="M1062.93,339.52l.66-.52a66.9,66.9,0,0,1-2.67,7.34,57.74,57.74,0,0,0-1.73,7.14c-1.26,5.68-2.71,11.23-3.89,17-2.35,11.34-1.9,23.55-.36,36.13,1.45,11.88,3.75,23.74,4.84,35.62a162.94,162.94,0,0,1,.43,29.41c-.59,6.38-2.51,14-7.77,13.36-2.47-.3-3.76-3.28-4.28-6.64-.84-5.4-1-11.07-1.34-16.44-.72-12-.87-23.93-1-35.79-.14-11.19-.51-22.6.24-33.5a102.43,102.43,0,0,1,6.2-28.76c1.7-4.61,3.31-9.33,5.22-13.72.92-2.11,2-4,3-6.08C1061.16,342.34,1061.74,340.6,1062.93,339.52Z"/><path id="b51069ea-817a-46cb-b8d7-2009ba13b651" data-name="Thi-Succs!" class="b0dbb8e2-a498-431a-8b5e-040567fd2164" d="M981.8,399.3c1-1.6,3.07,3.69,3.39,4.36-.14-.33-.28-.66-.41-1a43.84,43.84,0,0,1,4.71,10.06c1.07,3.59,2,7.25,3,10.86,1.88,6.77,4.31,13.35,6,20.19a65.84,65.84,0,0,1,1.68,20.1,172.69,172.69,0,0,0-.19,21.58c.24,3.42,1.35,6.6,2.11,9.89s1.36,6.64,2.26,9.89c.21-.42.23,1,.23,1.1a6.7,6.7,0,0,1-.38,2.26,6.1,6.1,0,0,1-3.84,4.22c-3.45,1-6.66-2.16-7.78-5.48a90.46,90.46,0,0,1-3.24-15,71.33,71.33,0,0,1-.66-13.86c.41-9.18,2.07-18.24,2.52-27.41.49-10-1.49-19.38-3.15-29.11A84.73,84.73,0,0,0,985,408.13a39.36,39.36,0,0,0-2.31-5.07C982.15,402.11,981.16,400.42,981.8,399.3Z"/><path id="b2946e41-98a3-421f-aee8-e7bb907cecc5" data-name="Thi-Succs!" class="a7eb8708-4482-4483-9ccd-57ff938925cb" d="M1009.85,383.7c-.4,11.44-1.08,22.8-2.61,34.12-1.56,11.56-3.35,23.08-4.84,34.64-1.46,11.26-3,22.71-2.79,34.12.15,8.41-1.24,22.64,8.1,26.79s11.48-13.75,12.11-19.67c1.19-11.37.8-22.85.22-34.28-.59-11.73-1.58-23.4-2.81-35.09-1.36-13-2.43-26-3.29-39-.42-6.44-.53-12.87-.41-19.31.11-6.08-.12-12.22-2.28-18l-.34.25"/><path id="fc2754c5-959f-48b8-b0c4-eeca909cada2" data-name="Thi-Succs!" class="befbd76f-79fe-4ae1-a7bf-882b37b8c1c7" d="M1058.68,420c-1.7,2.47-3.42,4.93-5,7.55-2.87,4.7-5.47,9.92-6.25,16.64-1.64,14.05-.32,29.23,0,43.71.07,3-.31,5.83.86,8.65,1.06,2.55,3,4.5,4.92,4.49,4,0,3.42-9.9,3.43-14.25,0-7.63-.85-15.33-.77-22.94a159.27,159.27,0,0,1,1.62-22.28,128.53,128.53,0,0,1,4.87-20.72c.3-.9,2.43-7.87.42-6.67"/><path id="e83bf8d7-0c2e-4401-8c50-0dac30808c03" data-name="Thi-Succs!" class="a7eb8708-4482-4483-9ccd-57ff938925cb" d="M1040.86,345c-2.66,0-2.64,13.23-2.72,14.92-.29,6.14-.22,12.27-.4,18.4-.4,13.38-.89,26.88-2.9,40.11-1.08,7.12-2.34,14.21-3.69,21.27s-3.17,14.17-4.06,21.34c-.85,6.9-.37,13.94-.25,20.87a179.73,179.73,0,0,0,1.24,20.88c.22,1.7.49,3.4.77,5.1a41.19,41.19,0,0,0,.5,4.51c.64,2.15,3.38,2.86,5.22,2.52,5-.91,8.18-7.18,9.89-11.76,2.18-5.85,3.33-12.19,4.47-18.36a161.53,161.53,0,0,0,2.41-21.18c.72-14.44-.21-28.91-1.24-43.31-.58-8-1.24-16-2.26-23.94s-2.31-15.82-3.16-23.77c-.62-5.78-1.22-11.56-1.62-17.36-.09-1.38-.17-10.24-2.2-10.24"/><path id="ef6078c7-5942-4c87-b5d9-4b4c884d06f8" data-name="Thi-Succs!" class="befbd76f-79fe-4ae1-a7bf-882b37b8c1c7" d="M1037.53,441.14c-.43-13.89-6-74.88-7.28-91.67-.32-4.21-3.37-21.71-3.77-26.47-1.08,1.35-1,22.31-1,27.13s-.58,9.45-.89,14.19-7.45,67.28-8.38,71.93c-1.85,9.24-3.08,18.73-4,28.18-.92,9.21-2.37,18.93-1.12,28.19a27.8,27.8,0,0,0,1.47,6.19c.79,2.11,1.34,4.07,2,6.28,1,3.57,2.88,6.7,5.73,8.17,5.85,3,9-3.81,10.58-9.76a158.3,158.3,0,0,0,4.94-29.14c.85-11,2.1-22.1,1.75-33.22"/></g><g id="bde0d511-0771-4844-aaa8-4fccef5c34cc" data-name="Planter"><rect id="aa5c8485-d03b-43d3-8c98-f6c3f67e0fdc" data-name="Vase" class="a617d9bb-aed8-4cc2-bb96-bd9e529b0de4" x="975.59" y="482" width="91" height="91" rx="2"/><rect id="f72b93ad-ee5c-40c4-88da-51ec62a69e88" data-name="Leg" class="b42d3924-5dbd-4fea-af0f-01bbd90787cd" x="965.59" y="492" width="10" height="113" rx="2"/><rect id="b47fc3c4-ce20-4ce8-8f9d-3edbebe0d9e3" data-name="Leg" class="b42d3924-5dbd-4fea-af0f-01bbd90787cd" x="1015.59" y="492" width="10" height="113" rx="2"/><rect id="a6c0d848-b2d3-4b4d-9d03-52fbb0fd0574" data-name="Leg" class="b42d3924-5dbd-4fea-af0f-01bbd90787cd" x="1066.59" y="492" width="10" height="113" rx="2"/></g></g></g><g id="aeeecbc5-ed79-4d67-b6fe-5ef5468a08c0" data-name="humaaans/sitting-8"><g id="bff5628c-70d3-43c4-b0fb-4761daef5ba5" data-name="A-Human/Sitting"><g id="a5fc464b-a5bc-4133-ba88-cfe844ac7d13" data-name="Head/Front/Short-2"><g id="ae33baaf-d6de-437b-9eee-66aa95936733" data-name="Head"><path class="e9f04bfe-750a-42ec-9a1f-1167abb43bb6" d="M457,374.22h24l-4.07-28.76c6.48,3.9,12.84,5.79,15.83,5,7.49-1.93,8.18-29.33,2.38-40.13s-35.58-15.51-37.08,5.89c-.53,7.43,2.59,14.06,7.2,19.47Z"/></g><path id="a793f183-b647-47da-8b9c-ac85d9e07603" data-name="Hair" class="e277d6f0-f69c-4fc5-a393-3dec2c4b2793" d="M466.54,340.52l1.44-11c-1.51-4.82-.88-7.84,1.88-9.09s5.56.48,8.39,5.19h2.93q1.32-6,4.4-7.09c6.48-2.41,11.16-1,15-1,4.22-14.62-5.55-21.27-21.55-23q-16-1.77-18.93,10.1a9.1,9.1,0,0,0-7,7.45c-1.31,6,7.28,15.12,10.29,28.52Z"/></g><g id="bd853c5a-bdea-4625-b640-b19017fa8456" data-name="Bottom/Sitting/Baggy-Pants"><g id="b8ce6256-3920-49c6-961c-f113aa21ab49" data-name="Objects/Seat/Cube-2"><path id="b1bd424c-89e1-4d90-bd15-a56ca357fc66" data-name="Seat" class="bdd74164-43b4-4763-a460-640a53bf0641" d="M374,515.22v92a16,16,0,0,0,16,16H505a16,16,0,0,0,16-16v-92a16,16,0,0,0-16-16H390A16,16,0,0,0,374,515.22Zm115,12a4,4,0,0,1,4,4v60a4,4,0,0,1-4,4H406a4,4,0,0,1-4-4v-60a4,4,0,0,1,4-4Z"/></g><path id="b3765076-5f9e-412f-aacf-9d33970b3241" data-name="LegLower" class="a2458444-ee4f-40ae-ab62-7d1c8fa39bcc" d="M631,611.63q-40.77-90.4-53.23-107.49c-5.49-7.52-29.74,0-22.4,16.16,3.08,6.77,12.84,24.47,24.77,44.37q10.44,17.43,40,53.55Z"/><path id="af4c3f02-49d4-48b4-87a5-a27a87043504" data-name="LegLower" class="a6590cde-850d-4539-9373-6ca41ea13a0f" d="M627,592.05c-3.9-5.3-35-75.48-48.12-93.26-5.77-7.84-43.66,3.23-35.82,20.06l36.7,92.37Z"/><g id="acbf5434-06b5-4498-be48-9dadc52d2f14" data-name="Lower-Leg"><path id="eb63c09d-92e3-4883-ad89-aad851f62c08" data-name="LegLower" class="e9f04bfe-750a-42ec-9a1f-1167abb43bb6" d="M491.78,600.55c3.38-3,43.86-37,71.61-62.13,11.14-10.1-11.08-28.73-22.25-17.65-3.75,3.74-7.72,7.74-11.79,11.91-14.16,14.51-40.16,49.59-47.31,60C477.55,599.25,487,604.79,491.78,600.55Z"/></g><g id="a92b1b18-57ce-4a09-b8eb-d78ef499e394" data-name="Accessories/Shoe/Flat-Sneaker"><path id="e801ed3f-837e-45cf-a41e-aa103301586c" data-name="shoe" class="bcf526b5-fb28-4714-a38f-df909b4950fd" d="M483.83,587.9a2,2,0,0,1,2.79.47h0A16.23,16.23,0,0,0,491,593a18.13,18.13,0,0,0,7.2,1.79l3.5-2.7,0,0a1,1,0,0,1,1.4.22L520,615.53q2.47,2,6.29,4.84t-1.72,8.07l-48.85-28.2a50.16,50.16,0,0,1,3.17-7.29,21.58,21.58,0,0,1,4.8-5Z"/></g><g id="ed68821d-0ea3-4916-af43-3a1cd17642da" data-name="Accessories/Shoe/Flat-Sneaker"><path id="f3e77776-a2b4-4d7f-99ce-359a62b9ac7d" data-name="shoe" class="bcf526b5-fb28-4714-a38f-df909b4950fd" d="M611.74,614.49a2,2,0,0,1,2.65-1h0a16.16,16.16,0,0,0,6.16,1.8,18,18,0,0,0,7.12-2l1.69-4.09v0a1,1,0,0,1,1.32-.5l26.21,11.68c2.09.31,4.72.66,7.87,1s4,3,2.54,7.85h-56.4a50.22,50.22,0,0,1-.9-7.9,21.47,21.47,0,0,1,1.68-6.7A.5.5,0,0,1,611.74,614.49Z"/></g><path id="a87c1111-a812-4dd2-ab12-7dbece23399c" data-name="Leg-and-Butt" class="b75763f7-8972-4667-80ef-4ab2114db744" d="M530,526.81,493.5,573.58,538,601.93q48.09-82.29,48.19-82.57c1.74-4.6,3.51-18.54-6-23.27q-79.44-35.46-90.24-38.57H435.55c-5.09,34.66,3.52,50.55,33,55.76q15.54,2.73,61.28,10.19Q531.4,523.91,530,526.81Z"/></g><g id="a72c29b9-104e-4456-b17a-985ffb262e2a" data-name="Body/Hoodie"><path id="a412be4c-99ac-418c-ab82-73cdd6cffa96" data-name="Skin" class="e9f04bfe-750a-42ec-9a1f-1167abb43bb6" d="M526.74,461.86,558.33,475q13.39,15.74,15,13.12c1.59-2.61-1.85-4.93-1.07-6.87s6.79-1.74,12.47-1.3,4-2.09,2.66-3.34a85.78,85.78,0,0,0-21.68-8.72l-31.9-23.42ZM398.41,509.13c-1.44,2.9-12,11.73-19.4,16.78-2.95,2-1.73,4.61-.61,5.3,9.07,5.6,15-1,22.9-4.67,8.6-4,7.87,7.3,14.69,4.24-2.09-4.69-7-13.42-4.67-19.16q1.55-3.83,20.89-66.3l-20.89-.08Q401.33,503.19,398.41,509.13Z"/><path id="e329a662-eaa5-493b-9849-97737bfb604c" data-name="Coat-Back" class="ae7d049f-f082-4043-8ff9-fbc037e16d74" d="M554.47,477l9.47-11.74c-39.33-28.2-52.51-81.45-84.59-109.16l-8.65,1.48C469.34,403.57,486.25,468.52,554.47,477Z"/><path id="fc344178-7269-470f-8fa8-d219eea1bac9" data-name="Shirt" class="a82a8a32-c3f1-467a-9411-49b1bb0c9d5e" d="M461.18,352.22l22.07,3.46c0,41.85,22.77,73.54,28.6,102.94.51,2.55,1.17,7.6-2.33,7.6H433C436.61,417.72,442.93,381.58,461.18,352.22Z"/><path id="f1386380-7f2c-487a-b124-5af2027bcffd" data-name="Coat-Front" class="b74e2caf-0e5b-4c32-a11c-5e1ccb49cd49" d="M398,508.22h16.41a206,206,0,0,0,10.24-21h60.22q13.33-33.71-16.4-134.47l-6.91-.39a13,13,0,0,0-2.05-.14c-13.74,0-21.42-5.43-30-2.79s-11.54,10.64-3.47,25.2a12.65,12.65,0,0,0,7.61,6.45Q395.7,433.31,398,508.22Z"/><path id="e1f278b9-1010-4b85-8057-a327809cc458" data-name="Shade" class="b73c8db1-db87-4d2d-8621-f95c8e8755ee" d="M424.66,487.22H447q-6.39-10.74-9.24-34.5Q430.9,472.66,424.66,487.22Z"/></g></g></g><g id="a9e5c9da-8c49-49af-b3cc-1c1933de6fee" data-name="humaaans/standing-9"><g id="ffa7608b-6419-4de7-9c0b-65dfeb5c0617" data-name="A-Human/Standing"><g id="bb88edc7-491f-4620-af50-4a6e596a11e4" data-name="Head/Front/Airy"><g id="bb6bc51f-57b2-4078-9194-22d665c7cdd4" data-name="Head"><path class="f99aa335-c1e5-4caf-af26-4e4038aeb92b" d="M307.07,272.51c-4.61-5.41-7.73-12-7.21-19.47,1.51-21.4,31.3-16.69,37.09-5.89s5.11,38.2-2.38,40.13c-3,.77-9.35-1.12-15.83-5L322.81,311h-24Z"/></g><path id="a53ce7e6-6235-44ec-b1a9-3b5a8fffd530" data-name="hair" class="fd6c168d-6dc2-4ede-9d81-0a3055af3768" d="M323.27,234.7c-3.16-.52-11.68-.87-13.25-.87-1,0-2.09.23-2.69-.7-.48-.75-.3-2-.45-2.9s-.41-2-.65-3a30.79,30.79,0,0,0-3.19-8.11,25,25,0,0,0-11.82-10.69,37.82,37.82,0,0,0-17.93-2.47c-6.44.52-12.27,2.65-18.35,4.65A38.49,38.49,0,0,1,237,212.3c-6.1-.93-10.72-4.24-15.86-7.38s-11.3-5.32-17.53-4.84c-5.81.46-11.17,2.86-16,6.07-4.5,3-8.21,6.61-10.31,11.69-2.26,5.47-2.25,11.47,1.45,16.3,5.38,7,15.36,8.81,23.66,8.63a45.19,45.19,0,0,0,14-2.57c6-2.13,11.27-5.73,16.92-8.66a44.17,44.17,0,0,1,8.28-3.31c2.79-.79,5.54-1.15,8.06.54a38.54,38.54,0,0,0,8.13,4.65,26.31,26.31,0,0,0,9.16,1.65c6.09,0,12.08-1.95,18-3.21,4.81-1,10-2.07,14.87-1.08,2.05.42,5.05,1.28,5.79,3.41-12.46,2.25-17.35,17.66-13.84,29,1.9,6.11,13.29,13.24,17.72,10,2.8-2,1.1-4.7,0-6.46-2.12-3.37-2.84-7.71,1.07-10.06,3.37-2,6.91,2.79,7,2.78.92-.07,8.93-4.6,14.44-11.2,5.44.32,6.27-3.26,5-6.2S327.64,235.42,323.27,234.7Z"/></g><g id="be9dab8f-1abe-44e0-8016-b1dca97b398a" data-name="Bottom/Standing/Sprint"><path id="bf764172-4b52-4f83-bff8-15331ea46b23" data-name="Leg" class="f99aa335-c1e5-4caf-af26-4e4038aeb92b" d="M279.45,394c1.8,24.61,118,97.06,118.64,99.09q.45,1.36-36.15,85.68l10.15,4q56.15-89.31,53.27-98.82-4.14-13.64-90.13-89.64Z"/><path id="b0f459bf-7899-40fb-85f2-dd9bf9e349f9" data-name="Pant" class="b6fbe26e-3ca8-4847-8313-21d377f087b3" d="M364.61,566.1l16.58,6c34.95-39.44,48.66-72,46.16-88.57q-2.5-16.57-89.82-89.48H278.26c2,57,109.69,99.25,111.13,101.68S376.66,522,364.61,566.1Z"/><g id="b3b516b1-cf5f-4a75-9b4f-854d742188ec" data-name="Accessories/Shoe/Flat-Sneaker"><path id="acabaf01-ef33-4d6e-9be0-9c1d8a520646" data-name="shoe" class="bcf526b5-fb28-4714-a38f-df909b4950fd" d="M358.2,576.86a21.6,21.6,0,0,0-3.87,5.72,50.15,50.15,0,0,0-1.85,7.73l53,19.29q4.54-6.08.3-8.24c-2.84-1.45-5.19-2.67-7-3.68L378.1,577.73a1,1,0,0,0-1.41,0l0,0-3,3.26a18.13,18.13,0,0,1-7.4-.51,16.21,16.21,0,0,1-5.17-3.8h0a2,2,0,0,0-2.82,0A.52.52,0,0,0,358.2,576.86Z"/></g><polygon id="f38a7579-520c-4eba-abf2-f1bb38a3476a" data-name="Leg" class="b2658a52-ad2b-46c3-a449-584315bf21e6" points="292.81 394.02 241.06 518.24 190.2 623.27 202.2 623.27 333.48 394.02 292.81 394.02"/><g id="fe107fc0-f345-4e5d-9d7b-98c42e98ca97" data-name="Accessories/Shoe/Flat-Sneaker"><path id="b35a9889-5f54-42ce-b4f2-d9706728ee8d" data-name="shoe" class="bcf526b5-fb28-4714-a38f-df909b4950fd" d="M189.49,618.42a21.41,21.41,0,0,0-1.68,6.7,50.35,50.35,0,0,0,.9,7.9h56.4q2.2-7.28-2.54-7.85t-7.87-1l-26.21-11.69a1,1,0,0,0-1.32.51v0l-1.69,4.08a17.89,17.89,0,0,1-7.13,2.05,16.16,16.16,0,0,1-6.15-1.8h0a2,2,0,0,0-2.65,1A.5.5,0,0,0,189.49,618.42Z"/></g><path id="a350dd65-9c29-4e36-9255-7a87f74e17a7" data-name="Pant" class="babb6271-eb9d-4c3a-89ae-f1a92ebc2f52" d="M194.8,601.45l26.66,5C242.07,576.14,328.35,451.87,337.81,394H278.45C246.86,435.84,214.45,570.64,194.8,601.45Z"/></g><g id="a25e22c9-599b-4505-8df6-c380f45d0f44" data-name="Body/Jacket-2"><path id="a84dfb04-6232-4328-b1c5-b0fd985b37fd" data-name="Skin" class="f99aa335-c1e5-4caf-af26-4e4038aeb92b" d="M382.81,366.63,419,350.72a85.8,85.8,0,0,1,18.39-14.42c1.77-.57,4.79-.74,1.57,4s-6.4,9.8-5.12,11.45,5-.17,6.49,2.51q1.49,2.68-18.86,6.42l-27.13,20.8ZM236.32,371l20.49,4.06q-30.92,57.62-33.16,61.07c-3.36,5.18-.22,14.68.94,19.69-7.28,1.69-4.41-9.26-13.62-7-8.4,2.08-15.52,7.44-23.36.22-1-.89-1.67-3.67,1.62-5.09,8.18-3.55,20.27-10.19,22.23-12.77Q215.46,426,236.32,371Z"/><path id="a2c81f75-761b-400c-ba45-d8528c396480" data-name="Coat-Back" class="f68861f7-ccea-45ee-b9fd-e794aff67bc3" d="M312.5,294.35l8.65-1.49c18.83,18.27,26.52,62.17,39.07,68,11.87,5.49,28.69.18,48.69-7L415,367.52c-18.17,19.66-56.87,36.26-72.56,26.78C317.38,379.15,311.59,325,312.5,294.35Z"/><path id="efe3fa90-1866-4e7d-ab15-bee7b6bd9f2d" data-name="Shirt" class="a82a8a32-c3f1-467a-9411-49b1bb0c9d5e" d="M274.81,403h76.51c3.49,0,2.84-5,2.33-7.6-5.83-29.4-28.6-61.09-28.6-102.94L303,289C284.72,318.37,278.41,354.52,274.81,403Z"/><path id="e7292cb4-1a2e-4f28-a2dc-32516489a0bb" data-name="Coat-Front" class="f20b3269-f817-41c7-8f5d-8a7a64972622" d="M267.18,373.25q-23.4,42.19-39.34,60.77l-16-3.15Q227.3,334.78,301.55,289h8.74Q340,390.32,326.68,424H257.81C258.9,407.58,262.39,390.2,267.18,373.25Z"/></g></g></g><g id="e5169988-8250-4117-89bd-69a81f95b7ab" data-name="humaaans/standing-15"><g id="a35f67e7-21d5-4580-8e66-c6093edfd6b8" data-name="humaaan-6"><g id="baa87c6a-07e4-4c39-9966-fc2d72ad91e5" data-name="Head/Front/Pony"><g id="f1205c21-f156-455c-9bdf-0a0bef121079" data-name="Head"><path class="edda7eec-cd57-47df-ac7c-267d3b5aa302" d="M875.86,277.25l-24.43,8.89-6.51-30.78c-5.15,6.37-10.93,10.65-14.25,11-8.34.81-19.19-26.82-17.29-40s30.47-29,39.93-7.74c3.28,7.36,2.56,15.27-.12,22.48Z"/></g><path id="b3e07d08-8e0b-45d4-90c9-580ab5a67b3b" data-name="hair" class="ae3aee13-7cc8-4c62-8cb4-aadb014bac29" d="M847.25,233.48a6.5,6.5,0,0,0-8.33-3.88,5,5,0,0,0-2.82,3.13,32.56,32.56,0,0,1-2.64-5.47,23,23,0,0,1-1.33-5.7A54.63,54.63,0,0,1,820,223.77a10.83,10.83,0,1,1,7-14.1c1.06-.4,2.15-.79,3.28-1.15a53.69,53.69,0,0,1,15.87-2.93,11.57,11.57,0,0,1,2.34.13,8.75,8.75,0,0,1,3.06.84,21,21,0,0,1,8.27,6.31c5-5.32,11.29-10,25.67-15.23,21.15-7.7,26.26,25,11.12,30.54-11.13,4-21.75-5-32.27-7.68.16.39.32.79.46,1.19,4.16,11.43,2.38,24.11-5.57,27-4.19,1.52-10-1.33-15.12-6C847.45,241.2,848.71,237.47,847.25,233.48Z"/></g><g id="bcca45c8-0964-4a2c-8177-c4611b45bc0e" data-name="Bottom/Standing/Skirt"><path id="a5d9fca9-283b-46f6-af53-7c4d9586a6b2" data-name="Skirt-Shadow" class="bbe5a9fd-00ef-45ec-9c88-ef04effddb7c" d="M883.88,461.81q-24.68,0-62.82,11.19,24.26,16.78,52.53,16.79t67.26-10.9Q908.57,461.81,883.88,461.81Z"/><path id="f7460eb6-3572-42de-a414-4bbe767cc046" data-name="Leg" class="b614c1da-358b-4aea-98ae-d9d258a9f6b0" d="M838.87,548.2c-5.9,21.22-19.14,56-24.69,68.54-3.49,7.89-16.6,1.2-14.27-5.22,2.22-6.1,19.56-94.21,28-121.42,2.67-17.24,21.64-103.69,25.85-117.46h62.64c-5.54,18.11-61.18,117.21-64.65,126.4a6.48,6.48,0,0,1-.63,1.23C848.89,510.41,844.39,528.3,838.87,548.2Z"/><path id="a70a6dbe-a386-4760-a5b9-4eaa9d53513b" data-name="Leg" class="edda7eec-cd57-47df-ac7c-267d3b5aa302" d="M892.92,506.66c-4.07-10.84-25.95-119.18-28.54-134h55.43c2.7,15.48-1.42,87.17-2.32,117,10.63,1.69,26.47,4.58,43.83,8.12,21.58,4.4,57.17,15.18,70.09,19.84,8.12,2.94,2.36,16.47-4.21,14.6-6.38-1.82-99.42-13.45-124.86-19.87C898.06,512.24,894.21,510.53,892.92,506.66Z"/><g id="b234be85-5859-40da-9d5b-cbbb491d6290" data-name="Accessories/Shoe/Flat-Sneaker"><path id="a688d085-a55c-47c0-af02-8941d4fd8156" data-name="shoe" class="bcf526b5-fb28-4714-a38f-df909b4950fd" d="M1030.67,514.07a2.18,2.18,0,0,0-1.55,2.65h0a17.62,17.62,0,0,1,.77,6.9,19.6,19.6,0,0,1-3.53,7.22l-4.68,1h0a1.07,1.07,0,0,0-.78,1.31l7.53,30.17c-.06,2.28-.18,5.15-.36,8.59s2.45,4.84,7.89,4.18L1046.54,516a53.78,53.78,0,0,0-8.25-2.45,23.31,23.31,0,0,0-7.47.53Z"/></g><g id="f434fee1-bb91-4424-9daf-712cf7eed70c" data-name="Accessories/Shoe/Flat-Sneaker"><path id="a28ecbb5-5aa7-4355-8517-3153c3272a3c" data-name="shoe" class="bcf526b5-fb28-4714-a38f-df909b4950fd" d="M818.1,615.57a2.18,2.18,0,0,0-2.88-1.07h0a17.43,17.43,0,0,1-6.66,2,19.6,19.6,0,0,1-7.72-2.21L799,609.81v0a1.08,1.08,0,0,0-1.43-.55l-28.4,12.66q-3.39.51-8.52,1.14t-2.75,8.5H819a54.34,54.34,0,0,0,1-8.55,23.09,23.09,0,0,0-1.82-7.27A1.21,1.21,0,0,0,818.1,615.57Z"/></g><path id="bbbacd82-6ea6-4c23-923f-0b4cbe80b296" data-name="Skirt" class="b74e2caf-0e5b-4c32-a11c-5e1ccb49cd49" d="M941.29,478.8c-37.91-17.85-83.4,13.5-120.23-4.8,3.24-53,21.66-66.77,29.24-101.36q32.7-10.49,69.33,0C937,393.72,952.13,453.84,941.29,478.8Z"/></g><g id="ad0e1eb6-3e4f-4b45-8630-056f687d6842" data-name="Body/Lab-Coat"><path id="a8dcbf6b-610c-4cc4-850a-4c356bf44951" data-name="Skin" class="edda7eec-cd57-47df-ac7c-267d3b5aa302" d="M828.54,394.51l-28.44,27.2q-7.82,22.47-10.61,20.32c-2.79-2.14-.07-6.07-1.72-7.82s-8,1-13.92,3.8-5.19-.57-4.24-2.48q7.17-9.21,19.63-18.37l24.47-38.41Zm181.18-13c2.92,2.32,18.29,6.31,28.42,8,4.07.66,4.06,4,3.24,5.22-6.7,10.28-16.17,6.31-26.13,6.36-10.92.05-4.63,11.46-13.22,11.63-.12-5.92.69-17.41-4.53-22.25q-3.48-3.23-55.89-61.52L960.2,320Q1003.76,376.73,1009.72,381.49Z"/><path id="b035a995-a4e2-423f-8857-72fc2b71c9f1" data-name="Coat-Back" class="bdd74164-43b4-4763-a460-640a53bf0641" d="M872.23,323.93c-4,35.94-32.8,62.85-62.1,95.06l-15.47-14.27c30.42-46,42.58-93.16,46.28-139.11l13.3.25C858.55,278.46,873.55,311.87,872.23,323.93Z"/><path id="e40fcbe1-ab8b-4642-86e1-14b7b6309373" data-name="Shirt" class="a8255ee8-7e30-414e-ae00-e638dc28dd1d" d="M858.39,261q-11.68,5.52-17.33,4.56c9.36,30.22,8.94,71.95,4.66,121-.27,3.14,1.39,7.14,4,6.83q31.47-3.72,81.61-25.28C911.06,318,889.93,285.37,858.39,261Z"/><path id="ae787131-f988-439d-a672-86b94255a4ee" data-name="Coat-Front" class="a82a8a32-c3f1-467a-9411-49b1bb0c9d5e" d="M862.82,256.16l1.07.29.8-.25.54.63q87.42,24.81,142,118.31L987.94,387q-36.51-50.29-69.52-65.86c35.17,45,73.17,99.93,91.3,149.87L897.81,505.69c3.54-61.75-42.16-233-43.91-246.15l9.13-2.82Z"/></g></g></g><g id="b2eab580-8e7e-4502-9f56-c5ab370ff163" data-name="humaaans/sitting-5"><g id="bd57fe20-8be2-42c3-a6ba-abf338feea63" data-name="A-Human/Sitting"><g id="b83fe9e5-f831-45e6-b622-559e3706347b" data-name="Bottom/Sitting/Skinny-Jeans-1"><g id="f765bcb7-4a11-4ce3-b4a6-c759286bc889" data-name="Objects/Seat/Cube"><g id="a37511e6-d2d0-4202-881f-671d2425dafd" data-name="Seat"><polygon id="bb8ff843-041d-4f5e-a08e-c543f3a82a26" data-name="Seat-Stuff" class="aa3b96ee-a48a-4699-a54f-60bff61b9193" points="513.85 637.35 628.85 637.35 618.72 513.35 541.47 513.35 513.85 637.35"/><polygon id="b1a7185b-1c38-4701-ac0e-7bf042f68ac7" data-name="Seat-Stuff" class="b73c8db1-db87-4d2d-8621-f95c8e8755ee" points="513.85 637.35 579.45 637.35 565.23 513.35 541.47 513.35 513.85 637.35"/></g></g><path id="abc6e78b-cf5d-4171-981e-35558641081f" data-name="Skin" class="ac7ea7b7-7f24-42ce-91c9-6a7e167a0817" d="M684.28,492.56c-3.91,6.34-13.2,24.34-23.11,45.35q-8.68,18.42-22.25,63.11l11.52,5.26q31.81-51.16,47-78.62c-.81,7.11-1.64,15.08-2.41,23.45-1.86,20.27,0,64.06,1,76.71.63,7.95,11.44,6.29,12.44,0s20.33-106,20.36-127.21c0-7.08-13.81-13.43-22.05-8.49C701.14,486.07,690.43,482.59,684.28,492.56Z"/><path id="a90f30e0-b883-496e-9e9d-e0294b73fc3c" data-name="LegLower" class="f422e938-bc36-4e44-8398-e2a660c11bab" d="M665.26,593.74c2.19-6,39.47-70.91,46.8-91,3.23-8.84-23.32-27.17-32.79-11.94l-39.52,93.64Z"/><g id="a7e699da-131b-43e7-ba04-e0c705b5dee5" data-name="Accessories/Shoe/Flat-Sneaker"><path id="ae8cafe8-d6aa-4e23-92a3-4f419139fb95" data-name="shoe" class="bcf526b5-fb28-4714-a38f-df909b4950fd" d="M637.66,595a2,2,0,0,1,2.79.47h0a16.17,16.17,0,0,0,4.43,4.63,17.84,17.84,0,0,0,7.2,1.8l3.5-2.7,0,0a1,1,0,0,1,1.4.22l16.86,23.23q2.48,2,6.29,4.84t-1.73,8.07l-48.84-28.2a49.07,49.07,0,0,1,3.17-7.29,21.58,21.58,0,0,1,4.8-5Z"/></g><g id="b1c3c820-0a4d-45e8-8e78-51bc253b70c3" data-name="Accessories/Shoe/Flat-Sneaker"><path id="b6d9e20f-542c-4134-8378-1c4d73586b42" data-name="shoe" class="bcf526b5-fb28-4714-a38f-df909b4950fd" d="M693.58,622.62a2,2,0,0,1,2.65-1h0a16.16,16.16,0,0,0,6.15,1.8,18,18,0,0,0,7.13-2l1.68-4.09,0,0a1,1,0,0,1,1.32-.5l26.21,11.68q3.13.46,7.87,1t2.54,7.85h-56.4a50.22,50.22,0,0,1-.9-7.9,21.68,21.68,0,0,1,1.67-6.7Z"/></g><path id="bbb917f1-7cf5-47fc-8689-c4e4e5fca4e0" data-name="Leg-and-Butt" class="bca2c1af-19c6-4332-9e3d-43e2c71aa921" d="M718.82,489.74c-23.42-4.38-86.5-17.1-98.59-18.39H560.85c1,35,13.4,53.92,43.38,53.92,20.79,0,90.11-7.81,91.84-6.92q1.74.9-4.22,83.84l27.14,0c0-5.85,12.63-67.82,12.63-94.39C731.62,500.46,728.85,491.61,718.82,489.74Z"/></g><g id="bb2444e8-77af-489b-a83d-f593f0eac6fb" data-name="Body/Jacket-2"><path id="aedc5afd-9184-41a5-8a07-74cc3e50097b" data-name="Skin" class="ac7ea7b7-7f24-42ce-91c9-6a7e167a0817" d="M671.14,436.32l36.3-15.94a85.57,85.57,0,0,1,18.42-14.44c1.77-.57,4.79-.74,1.56,4s-6.41,9.82-5.12,11.47,5-.17,6.5,2.51q1.49,2.69-18.89,6.43l-27.18,20.84ZM524.4,440.71l20.53,4.08Q514,502.5,511.72,506c-3.37,5.2-.23,14.72.93,19.73-7.28,1.7-4.41-9.27-13.63-7-8.42,2.09-15.55,7.45-23.4.22-1-.89-1.67-3.67,1.62-5.1,8.19-3.55,20.3-10.2,22.27-12.79Q503.52,495.75,524.4,440.71Z"/><path id="fae0a1be-0367-4c9e-acda-c2e740c74f1a" data-name="Coat-Back" class="fdd0a761-ff41-49f6-816c-3af4c37830b5" d="M600.72,363.92l8.66-1.49c18.87,18.3,26.56,62.27,39.14,68.09,11.88,5.5,28.73.18,48.76-7l6.14,13.7c-18.2,19.69-57,36.33-72.69,26.83C605.61,448.86,599.81,394.63,600.72,363.92Z"/><path id="fceed89b-30b1-4af9-9b8c-fdb90232bfcb" data-name="Shirt" class="a82a8a32-c3f1-467a-9411-49b1bb0c9d5e" d="M563,472.77H639.6c3.5,0,2.84-5.06,2.34-7.61C636.09,435.71,613.29,404,613.29,362l-22.11-3.46C572.89,388,566.57,424.19,563,472.77Z"/><path id="b7ee0d7c-938f-4ae2-b152-dfe57ea93bdc" data-name="Coat-Front" class="a20b38f8-94d9-43a2-b0eb-1fefd7ca4cd0" d="M555.32,443q-23.45,42.27-39.4,60.87l-16.07-3.15q15.52-96.26,89.9-142.09h8.76q29.76,101.48,16.41,135.22h-69C547,477.34,550.52,459.93,555.32,443Z"/></g><g id="a38b4941-58a4-4e69-a586-ba2307bc83d5" data-name="Head/Front/Hijab-1"><g id="a53554d5-a534-4fe6-b40c-0faad79a0bfa" data-name="Head"><path class="ac7ea7b7-7f24-42ce-91c9-6a7e167a0817" d="M584.85,388.35h24l-4.07-28.76c6.48,3.9,12.84,5.79,15.83,5,7.49-1.93,8.17-29.33,2.38-40.13S587.4,309,585.9,330.37c-.52,7.43,2.6,14.06,7.21,19.47Z"/></g><g id="ad1bfee7-c362-41a1-b9fa-7a268d4d6da6" data-name="Hijab"><path id="ee694e4e-944e-43af-9c8e-5b85eff1fba6" data-name="Front" class="b126819d-25de-45dc-9480-7f908d1d2277" d="M622.72,321.86c.57,1.09-1,2.9-1.36,3.42-.51.72-1,1.44-1.57,2.14-.95,1.23-1.93,2.43-2.88,3.65a133,133,0,0,0-8.68,13.25c-1.52,2.51-3.11,5-4.7,7.42-.25.39-.5.78-.74,1.18-.07.19-.14.38-.22.57-.75,1.95-1.46,4-2.4,5.86l-.15-1c0-.38-.09-.77-.12-1.15v-.13a22.3,22.3,0,0,1,.84-7.34c1-3.78,2.34-7.47,3.37-11.25.71-2.63,1.35-5.28,2.1-7.89s1.55-5.14,2.47-7.65c.48-1.29,1-2.58,1.55-3.83.26-.56.54-1.12.84-1.66l.08-.17c.18-.79,2.3-1.7,3-1.94,0,0,1,.68,1.13.74.58.25,1.73.94,2.28,1.27A29.32,29.32,0,0,1,622.72,321.86Z"/><path id="b9dc6269-c2fa-4962-9d0c-f29e7a498cef" data-name="Turban" class="e1b08908-0ce9-4a72-9033-86ac026ef919" d="M608.31,328.65c-1.61,5-2.75,10.1-4.31,15.1-1.31,4.19-3.1,8.5-2.74,13,.09,1.09,1.8,1.47,3.08,2.73s3.33,4.7,4.38,11.93c0,.16.24,4.56.66,6.57.71,3.42,4.23,7.18,5.4,10.38H568.26c-2.44-2.58.9-12,1.7-14.92.6-2.18,1.56-4.14,2.35-6.24a29.18,29.18,0,0,0,1.19-4.33,5.22,5.22,0,0,0,.09-2.6c-.22-.77-.66-1.53-.92-2.3a27.4,27.4,0,0,1-.78-3.79c-.21-1.15-.58-2.27-.76-3.44a38.63,38.63,0,0,1,.85-16c1.37-4.95,4-10.09,7.86-13.29A38.73,38.73,0,0,1,595.68,314c8-1.66,17.15-1,19.55.81.52.4.78,1.51.24,1.33C612.7,315.25,609,326.45,608.31,328.65Z"/><path id="f8b00c87-054b-4cbb-a492-9bc8cff135f0" data-name="Shade" class="b0f39ac1-3dde-4917-82ef-432947e20aac" d="M598.08,321.35c-1.71,2.21-3.14,9-1.53,16.14h.86c-.38-7.61,0-10.58,1.75-16.14ZM574.94,336c2.17,7.94,4.81,14.06,13.87,19.2l.71-.49c-9.13-6.42-10.62-11.11-13.89-19Zm13.35-8.34c.38,10.72,1.64,19.47,9.6,30.2l.82-.26c-7.73-12.31-8.17-18.74-9.65-30Zm12.56,48.65,1-.61c-12.1-6.29-11-12.5-20.64-15.51l-.7.85C587.77,362.6,590.25,372,600.85,376.35Z"/></g></g></g></g></svg>