<svg id="a1abe519-ad7e-4e58-9702-cb987eeba243" data-name="Layer 1" xmlns="http://www.w3.org/2000/svg" viewBox="0 0 958 378"><path d="M199,29c.43.33.86,1,1.29.95,4.19-.05,8.15.91,12.22,1.83s7.87,1.94,11.81,2.87c9.44,2.23,18,6.41,26.5,10.82a83,83,0,0,1,15,9.73c4.35,3.62,9,6.91,12.88,11,2.12,2.23,3.94,4.74,6.05,7s3.38,5.06,5.36,7.25c6.2,6.86,9.88,15.2,13.76,23.32a92.21,92.21,0,0,1,7.19,21c.53,2.57,2.27,4.86,2,7.67,2.16,1.77.66,4.49,1.79,6.77,1.26,2.57.83,5.95,1.23,9,.23,1.7.74,3.37,1,5.08a14.86,14.86,0,0,0,.88,4.65c.69,1.52,0,3.61.17,5.42,1.93,21,.53,42,1.05,63,.06,2.5-1,4.68-1.06,7.08s.58,5.19-.17,7.43c-.82,2.43-.58,4.76-.88,7.13-.28,2.2-.76,4.38-1.11,6.56a94.31,94.31,0,0,1-2.06,10.11c-2,7.29-4.12,14.56-6.78,21.66a117.94,117.94,0,0,1-9.33,19.63c-2.42,4-4.91,8-7.68,11.78-1.59,2.18-3,4.46-4.78,6.51a101.66,101.66,0,0,1-8.85,9.79,227.68,227.68,0,0,1-22.6,17.72c-1.21.84-3.07.58-3.77,2.26h-1c-.33-1.69-.35-3.53-1.06-5.05-2.39-5.11-5.59-9.75-11.21-11.55-2.29-.74-4.86-2.27-7.31-1.14a7,7,0,0,1-3.19.72,6.42,6.42,0,0,0-4.7,2A31,31,0,0,1,218.9,341c-1.46,1.12-4.35,5.7-4.91,7.72a19.65,19.65,0,0,1-.77,1.85c-.67-.75-1.05-1-1.2-1.38-2.82-6.68-6.5-12.64-12.87-16.57-4.49-2.76-9.1-5-14.57-4.63a33.2,33.2,0,0,1-4,0c-6.83-.43-12.15,2.82-17.07,7-5.08,4.31-8.42,9.84-10.91,16.05-1.64-5.07-3.23-7.89-7.13-11-3.68-2.91-8.2-4.77-12.75-3.88a18.06,18.06,0,0,0-12.1,7.86c-1.85,3-4.16,6-3.63,10h-2c-.35-.52-.59-1.29-1.08-1.52-3.46-1.64-6.36-4.05-9.42-6.29-4.92-3.61-9.89-7.13-14.22-11.43A81.69,81.69,0,0,1,81,324.61c-1.78-2.5-4.29-4.5-5.9-7.08-4.67-7.51-9.69-14.83-13.14-23a152.17,152.17,0,0,1-6.94-19.12c-1.09-4.05-2.81-7.92-3.21-12.22a19.45,19.45,0,0,0-1-5.55c-2-4.78-1.53-10-2.79-14.83-.53-2,0-4.31-.14-6.48,0-.44-.62-.86-1-1.29V165c.33-.26,1-.52,1-.79.14-3.71-.21-7.42.95-11.1.61-1.9,0-4,1-6.11.77-1.76.6-4,1-6,1-5.71,2.75-11.22,4-16.83,1.81-8.27,5.41-15.78,8.37-23.54,1.8-4.7,5.2-8.86,7.66-13.32a93.86,93.86,0,0,1,12-16.41A118,118,0,0,1,96.35,57.93a130.62,130.62,0,0,1,25-15.76c2.07-1,4-2.51,6.2-3.09,5.84-1.55,11.22-4.42,17.25-5.44,4.14-.69,8-2.66,12.37-2.69,1.36,0,2.7-.73,4.08-.92s2.95-.11,4.42-.21c.14,0,.24-.54.36-.82ZM113,186c.66,0,1.46.24,2,0,6.06-3.38,12.07-6.83,18.24-10.35l-1.74-1.5c-12.69-1.73-17,4.42-18.36,12l-.19-.19-.82.69.32.32A3,3,0,0,0,113,186Zm96.78-44.28c1.84,3.6,3.46,6.94,5.25,10.2.82,1.48.63,3.12,1.07,4.57,2.12,6.93.63,11.92-3,18-2.16,3.58-5.44,6.08-8.08,9.12.47,2.21-2.48,4.11-.34,6.5,2.39-1.81,4.76-3.66,7.19-5.42,2.69-1.94,5.35-3.92,8.18-5.62a4.62,4.62,0,0,0,2.1-2.88c.68-1.89.21-4.16,1-5.52,1.25-2,.11-4,.92-5.66a9.93,9.93,0,0,0,.83-5.56c-2.24-2.19-3-5.05-4.13-7.82a10.49,10.49,0,0,1-.57-7.1c1.36-4.26,3.23-8.47,6.53-11.78,2.58-2.58,5.14-5.19,7.72-7.8.53.9.95,1.74,1.49,2.5a36.92,36.92,0,0,1,5.16,10.38,16.6,16.6,0,0,1-1.07,12.82,40.6,40.6,0,0,1-9,11.81c-.13,2.34.34,4.8-1,7.05-.2.34.22,1.05.42,1.81l13.22-9.59c.45-3.63.88-7.13,1.31-10.63,1.87-1.47.95-3.83,1.82-5.75,2.21-4.87,6-8.34,10-11.16,4.6-3.26,10.22-5,15.87-6.24,2.87-.64,5.92-.33,8.53-1.17,2.32-.74,4.37-.46,6.92-.89a109.21,109.21,0,0,1-2,11.94,34.5,34.5,0,0,1-10.88,19.54c-3.57,3.3-8,5.09-12.32,6.48-4.64,1.49-9.66,1.74-14.92,2.6-1.63,1.36-3.61,3-5.57,4.68-.15.12-.11.45-.14.56l4.06,1.31a24.53,24.53,0,0,1,9.42-5c5.18-1.59,8.51-1.39,13.82.85a37.92,37.92,0,0,1,8.78,5.25c3.9,3.09,7.53,6.67,9.76,11.12a70,70,0,0,1-7.38,4.46,31.56,31.56,0,0,1-17.52,2.16,15.39,15.39,0,0,1-8.78-4c-2.22-2.22-5.25-3.57-6.76-6.58a4.89,4.89,0,0,0-2.53-2.21c-3.36-1.18-6.8-2.11-10.2-3.13l-20.06,14.59,4.59,1.48c.67,0,.89.07,1,0,6.43-5.2,12.16-6.72,19.6-5a15.15,15.15,0,0,1,5.56,2.2c5.75,4.3,12,8.11,15.44,15-.28.33-.5.85-.88,1-4.58,2.24-9,4.54-14.08,5.92-6.09,1.67-11.27.2-16.35-2.31a25.36,25.36,0,0,1-8.17-6.84A17,17,0,0,0,211.09,196a9.37,9.37,0,0,1-2.24-1L187.2,210.66v74.28c3.36-2.39,6.49-4.78,9.8-6.9a8.25,8.25,0,0,0,4.05-6.05c.33-2.13,1.41-4.15,1.67-6.28.38-3.13,2.12-6.12,1.42-8.31-1.67-2.86-3.12-4.63-3.8-6.66-1.49-4.42-2.07-8.83-.44-13.57C202,231,206.28,226.62,210.46,222c2.22-.28,3-2.39,4.53-3.54.75-.56,1.46-1.16,2.22-1.77,7.65,12.18,7,15,6.68,25.42-.75,1.66-1.09,3.12-1.93,4.17-2.44,3-3.64,6.87-7.5,8.94a8.51,8.51,0,0,0-4.54,7c-.15,2.2-1.07,4.35-1.65,6.52,6.53-4.95,14-8.57,19.39-13.93.52-3,1.08-5.36,1.31-7.72a23.3,23.3,0,0,1,4.9-12.47c6-7.65,14.64-10.73,23.73-12.63,3.62-.76,7.3-1.53,11.08-1.11.64.07,1.34-.49,2.13-.8a12.1,12.1,0,0,1-.69,6c-.6,1.9-.54,4-1,6.08a35.48,35.48,0,0,1-12,20.05c-1.19,1-2.48,2.29-3.9,2.59-2.95.61-5.37,2.5-8.25,3s-6,.68-9.07,1.07a12,12,0,0,0-2.19.73,21.82,21.82,0,0,0-9.38,7,30.26,30.26,0,0,1,5.34,1.53c2,1,3.33.73,5.21-.57,3.66-2.51,7.83-4.56,12.41-3.62a26.5,26.5,0,0,1,9.89,3.85,42,42,0,0,1,13,13.35c-4.67,2.58-9,5.12-14.15,6.23-3,.64-6,1-8.69.16-6.73-2.16-12.52-5.95-16.41-12.26l-14.23-4.67a29.86,29.86,0,0,1-3.16,3.11c-3.29,2.43-6.73,4.68-10,7.14-.77.57-2.2,1.19-1.25,2.85h5L212.9,281h5a17,17,0,0,1,7,2.37c4.64,2.72,7.7,7.13,11.54,10.69.54.5.43,1.71.61,2.55-3.33,1.19-6.31,2.5-9.35,3.6-3.5,1.27-6.92,1-10.13.55a11.18,11.18,0,0,1-7.35-3.91,74,74,0,0,0-6.3-6.41L193.83,288l-6.73,5.36v27.37c8.12.49,16.42,4.78,21,9.91,1.85,2.08,3.59,4.26,5.39,6.4,11.42-10.28,29.79-10.5,39.11,5.2a9.44,9.44,0,0,1,1.62-1.87,92.6,92.6,0,0,0,13.58-10.65A117.61,117.61,0,0,0,282,313.6a115.41,115.41,0,0,0,10-15.89c1.66-3.3,3.21-6.67,4.8-10a56.23,56.23,0,0,0,3.58-9.52c.86-3.14,1.82-6.31,2.87-9.32a99.27,99.27,0,0,0,2.6-9.88,168.72,168.72,0,0,0,3-18.73A206.93,206.93,0,0,0,310,218.67c.17-8.32.21-16.67,0-25s.95-16.77-.88-25.11c-.48-2.22.06-4.66-.11-7s-.75-4.38-.93-6.59a27,27,0,0,0-.92-6.62c-.82-2.53-.15-5.66-1.29-8s-.59-4.61-1.5-6.89a40.3,40.3,0,0,1-2.24-7.55c-1.33-7.43-4.8-14-7.58-20.88-1.45-3.57-3.64-6.83-5.5-10.22a90.67,90.67,0,0,0-12.19-17.41c-7.73-8.48-16.2-16.08-26.43-21.75-14.22-7.87-15.59-8.26-29.7-12.86-7.71-2.51-15.64-3.4-23.5-4.7-5.19-.85-10.65-.33-16-.11s-10.36-.21-15.63.7c-4.51.78-9.15,1.18-13.62,2.3-3.45.86-6.91,1.76-10.35,2.71-6.31,1.75-12.14,4.54-18,7.28A92.41,92.41,0,0,0,101.9,64.86,122.67,122.67,0,0,0,86.11,81.19,117.12,117.12,0,0,0,74.23,99.32a91.48,91.48,0,0,0-6.11,13c-1.55,4.52-3.34,9-4.7,13.58-1.81,6.17-2.76,12.49-4.31,18.68-.49,1.94-.56,4-1,6.08s.3,4.53-1.1,6.56c.5,4.92-.88,9.73-1,14.59-.16,10.66-.23,21.34,0,32S55,225.2,57,235.85c.5,2.71-.6,5.57.63,8.25,1.15,2.52-.56,5.54,1.4,7.92a157.75,157.75,0,0,0,3.81,17.89A164,164,0,0,0,69,287.86c.21.53.86.88,1.47,1.47.47-1.8.88-3.14,1.17-4.51.68-3.2,2.23-6.08,3.27-9.14,1.42-4.22,4-7.71,6.31-11.39,2.63-4.21,6.46-7.38,9.87-10.92,4.24-4.4,9.45-7.46,14.73-10.33,8.16-4.44,17.05-7.12,25.81-10.11,6-2,12.09-3.61,17.75-6.66,4.86-2.62,8.65-5.84,10.8-11a27.76,27.76,0,0,1,1.79-3.07c0-1.53-.09-3.36,0-5.18.28-5-2.59-7.91-6.6-10.23-1.77-1-3-.8-4.84-.05-4.32,1.78-7.53,5.11-11.35,7.56s-7.17,5.1-10.85,7.77l-15.6-19.25c-4.37,2.23-4.89,2.29-14.07,2-3.12-1.7-6.46-2.76-7.87-6.31l5.48-3.13,2.81,3.5h8.44l-.48-.52,2.34-.94-17-25.05c-1.4-5.28,1.07-8.18,4.18-10.38A38.66,38.66,0,0,1,108,147c3.08-.92,6.06-2.19,8.8-3.2.46-1.87.93-3.37,1.19-4.9,1.19-6.8,5.06-11,12-12.16,0-12.39,0-24.71,0-37a.67.67,0,0,1,.23-.39c.08-.1.23-.13.42-.24l15.85,17.29L164.9,83.42c2.56,2.91,4.78,5.44,7,8l6.91,7.91v-8c-4.37-4.29-8.9-8.86-9-16-1.44-1.39-1-2.81-.34-4.44a32.3,32.3,0,0,0,1.12-5,37.25,37.25,0,0,1,5.68-12.63c1.86-2.87,4-5.57,6-8.39.65.65,1,1,1.36,1.36C189.33,52,194.24,58.09,195,66.52c1.71,2.73.67,5.33.19,8.22-.51,3.05-1.82,5.66-2.94,8.33-1.26,3-3.41,5.59-5.27,8.51,0,11.5,0,23.15,0,34.81,0,.13.15.28.27.38a1,1,0,0,0,.35.1l6.42-6.42c-.28-2.06.56-4,.86-6,1.31-8.9,7.68-13,14.93-16.35,1.67-.76,3.76-.53,5.54-1.11a19.16,19.16,0,0,1,6.1-1,40.63,40.63,0,0,0,5.47-.72c.32,4.37-.77,8.37-2,12.29-2.18,7-6.51,12.48-13.35,15.19-4.19,1.67-8.72,2.94-12.73,2.32-4.28,4.21-8.07,7.94-11.64,11.47v65.88a25.94,25.94,0,0,0,8.49-6.7c.58-2.81.74-5.25,1.6-7.41,1.34-3.36.6-6.06-1.37-8.89-2.15-3.07-3.91-6.42-4-10.34-.06-6.16,2.64-11.68,6.72-16.2C202.08,149.14,205.76,145.74,209.78,141.72Zm-65,8.28h-3.3c-7,0-14,.05-21,0a18.92,18.92,0,0,0-6.1,1c-5.5,1.77-10.49,4.53-15.38,7.21,0,1.94,0,3.32,1.31,4.81a115.13,115.13,0,0,1,6.8,9.64c.78,1.13,1.52,2.28,2.31,3.45,4.77-4.77,6.78-6.3,10.6-7.56,1.92-.62,3.73-1.78,5.88-1.51,2.53.32,5.18.3,7.55,1.1s4.14,3,6,4.82c2.18,2.1,2.89,4.9,3.41,7.57.62,3.16-1.23,6.08-2,9.11-4.14,4-7.6,8.94-14,9.71l2.81,4c5.35-3.77,10.49-7.17,15.33-11a10.31,10.31,0,0,1,3.85-1.64c4.71-1.39,9.16-1.17,12.88,2.56.83.83,1.69,1.62,2.47,2.48a17.21,17.21,0,0,1,4.63,14c-.62,4.53-1.89,9.23-5,12.85a35.6,35.6,0,0,1-8,7.33A61.59,61.59,0,0,1,139.35,237c-3.88,1-7.69,2.32-11.49,3.63s-7.83,2.82-11.7,4.34c-5.06,2-9.67,4.9-14.3,7.71-4.22,2.57-7.43,6.4-10.93,9.84a41.8,41.8,0,0,0-7.74,10.8,106.3,106.3,0,0,0-5.13,11.37c-1.46,3.94-1.75,8.22-3,12.26a6,6,0,0,0,1,5.5c1.24,1.49,1.89,3.31,3,4.74,1.73,2.26,2.63,5.4,5.76,6.44.6-1.68-.7-3.72,1.08-5.11.39-3.52,2.5-6.31,4.08-9.3,2.57-4.88,6.49-8.73,10.1-12.8a28.09,28.09,0,0,1,4.5-3.56,15,15,0,0,1,1.89-1c1.21,2.29-.3,4-.46,5.77-.44,5,.57,9.85,1.9,14.68,1.56,5.73,5.33,9,10.76,10.64,1.34.4,2.66,2.28,4.32.44-1.44-4.29-2.83-8.55-3.14-13.21-.32-4.81,1.19-9.27,2.36-13.61a31.34,31.34,0,0,1,6.9-12.07c3.09-3.49,6.85-6.39,10.85-10.05,0,2.1,0,3.55,0,5a33.77,33.77,0,0,0,2.06,11.15c1.31,3.89,2.85,8,6.46,10.24,3,1.91,6.66,2.93,10,4.35.24-.69.51-1.06.41-1.26a17.2,17.2,0,0,1-2-7.18c0-2.71-1.53-5.29-1-8.09a30.94,30.94,0,0,0,.95-4.59,17,17,0,0,1,2-6.69c4.17-8.53,4.08-8.81,11.06-13.78,2.6-1.84,5.8-2.83,8.89-4.3V108.14c-5.46-3.93-8.57-10.22-14-14.42-3.16,3.79-6.15,7.32-9.06,10.91s-5.17,7.66-8.66,10.46c-.54-.13-.74-.11-.83-.21l-9.56-9.53c-.11-.12-.24-.33-.35-.32s-.23.21-.38.36v21.68h32.75V133H129c-1.63,1.64-3.38,3.39-4.86,4.86v5.27h32.75v6.36L132.1,165.05V152.2h5.67l.78,2.21ZM113.52,342a22.45,22.45,0,0,1,17.81-12c8.31-.58,15.77.93,20.95,8,6.16-10.16,14.45-16.84,26.56-17.16V256c-.68.41-1.16.73-1.67,1-6.59,3.31-9.78,5.61-13.33,15.39-1.15,3.19-.5,6.12-.79,9.14-.47,4.88,1.11,9.33,3.5,13.51,1.09,1.91,2.22,3.81,3.49,6-3.78,0-7.1.05-10.42,0a24.71,24.71,0,0,1-17.06-7,26.63,26.63,0,0,1-8-16.36c-4.73,5.57-7.27,11.52-7.58,18.36-.13,2.83,0,5.66,0,8.49a6.57,6.57,0,0,0,.34,2.35c1.59,3.88,2.75,8,6,11a4.59,4.59,0,0,1,.73,1.68c.18.47,1.32.6.49,1.46-2.64,0-5.31.13-8,0a36.78,36.78,0,0,1-7.56-1c-8.07-2.29-14.21-6.92-17-15.17-.86-2.55-1.48-5.19-2.34-8.25-3.54,5.16-6.75,9.68-8.14,15.33-1.23,5-.72,9.75,2.47,13.45A64.16,64.16,0,0,0,111.32,340,13.71,13.71,0,0,1,113.52,342ZM251.26,159a28.65,28.65,0,0,0,18.45-5.46c6.72-4.78,10.19-12.05,10.87-20.73a22.28,22.28,0,0,1-4.06,1.19,41,41,0,0,0-13.32,4C256.1,141.16,250,149.62,251.26,159ZM235,253c2.91.13,5-1.24,7.55-1.17,1.71.05,3.42-1.26,5.18-1.79,5.57-1.68,9.18-5.78,12-10.42A20.88,20.88,0,0,0,263,227.7c-3.29.69-6.19,1.27-9.08,1.92a41.82,41.82,0,0,0-6,2.35,19.79,19.79,0,0,0-9.94,8.47C235.6,244.28,234.92,248.32,235,253ZM182.51,55,179,61.69a25.75,25.75,0,0,0-3.1,13.71,9,9,0,0,0,1.5,4.38,78.44,78.44,0,0,0,5.21,6.64l6.27-10.75C189.51,68,189,60.73,182.51,55Zm96.12,128.09c-4.51-4.65-9.15-8.06-14.86-9.77a8,8,0,0,0-4.65.14c-2.22.79-5.07.79-6.2,3.51C259.94,186.84,268.7,188.31,278.63,183.13Zm-53.58,13.42c1.27,1.27,2.36,2.53,3.62,3.58a24.66,24.66,0,0,0,6.75,4.06c3.79,1.5,7.44.22,11.08.81.94-1.88,4.63-.13,4.49-3.63a48.58,48.58,0,0,0-12.83-8.3h-7.63Zm-9.67,29.52c-5.74,6-10.39,11.51-10.45,18.92l3.59,7c1.82-1.82,3.54-3.62,5.35-5.33a13.5,13.5,0,0,0,4.11-9.77C218.12,233.35,216.8,230.16,215.38,226.07Zm-12.91-48.44,7.18-9.33c.41-2.63.7-4.47,1.08-6.87l-2.24-9.05c-6.51,5.29-10.59,11-9.41,19C200.14,173.32,201.1,175.08,202.47,177.63ZM219,102.85a26.92,26.92,0,0,0-11,3.23c-3.39,1.68-5.25,5-6.77,8.72v4c4-1.22,8.44-1,11.67-4.06S219.27,108.46,219,102.85ZM260.4,279.7c-.49-.85-.67-1.54-1.12-1.87-3.27-2.43-6.58-4.78-9.58-6.93-4.46.48-9-1.2-12.08,3.32,2.32,1.93,4.44,3.61,6.47,5.39,2.31,2,5.62.62,7.8,2.25ZM135.93,181.12l-20.79,11.54c1.59.3,3.43.3,4.92,1,2.12,1,3.63-.55,5.43-.67,5.17-.34,8-3.75,10.44-7.73Zm97.36-45.39c-3.77,1.89-4,6-6.16,8.71v6.17l2.72,3.25,5.25-6.05C234.54,143.65,236.14,139.48,233.29,135.73ZM227.1,294.09c-2.37-3.67-5.38-5.45-9.06-7.07-1.85-.11-4.24-.33-6.15,1.85,1.47,3.26,4.75,4.36,8.31,6.31Z"/><path d="M365,163.67a46.25,46.25,0,0,0,23.4,6.6c13.35,0,21.15-7.05,21.15-17.25,0-9.45-5.4-14.85-19.05-20.1-16.5-5.85-26.7-14.4-26.7-28.64,0-15.75,13.05-27.45,32.7-27.45,10.35,0,17.85,2.4,22.35,5l-3.6,10.65a40.27,40.27,0,0,0-19.2-4.8c-13.8,0-19.05,8.25-19.05,15.15,0,9.45,6.15,14.1,20.1,19.49,17.1,6.6,25.8,14.85,25.8,29.7,0,15.6-11.55,29.1-35.4,29.1-9.75,0-20.4-2.85-25.8-6.45Z"/><path d="M440.33,73.08h13.2V179.57h-13.2Z"/><path d="M483.08,145.67c.3,17.85,11.7,25.2,24.9,25.2,9.45,0,15.15-1.65,20.1-3.75l2.25,9.45c-4.65,2.1-12.6,4.5-24.15,4.5-22.35,0-35.7-14.7-35.7-36.6s12.9-39.14,34-39.14c23.7,0,30,20.84,30,34.19a49.79,49.79,0,0,1-.45,6.15Zm38.7-9.45c.15-8.4-3.45-21.45-18.3-21.45-13.35,0-19.2,12.3-20.25,21.45Z"/><path d="M566.78,86.13V107h18.9v10h-18.9v39.15c0,9,2.55,14.1,9.9,14.1a29.36,29.36,0,0,0,7.65-.9l.6,9.9a32.31,32.31,0,0,1-11.7,1.8c-6.15,0-11.1-1.95-14.25-5.55-3.75-3.9-5.1-10.35-5.1-18.9V117H542.63V107h11.25V89.58Z"/><path d="M616.43,86.13V107h18.9v10h-18.9v39.15c0,9,2.55,14.1,9.9,14.1a29.36,29.36,0,0,0,7.65-.9l.6,9.9a32.31,32.31,0,0,1-11.7,1.8c-6.15,0-11.1-1.95-14.25-5.55-3.75-3.9-5.1-10.35-5.1-18.9V117H592.28V107h11.25V89.58Z"/><path d="M650.18,73.08h13.2v45.3h.3a24.43,24.43,0,0,1,9.45-9.3,27.17,27.17,0,0,1,13.5-3.75c9.75,0,25.35,6,25.35,31v43.2h-13.2v-41.7c0-11.7-4.35-21.6-16.8-21.6-8.55,0-15.3,6-17.7,13.2a16,16,0,0,0-.9,6.3v43.8h-13.2Z"/><path d="M740.78,145.67c.3,17.85,11.7,25.2,24.9,25.2,9.45,0,15.15-1.65,20.1-3.75l2.25,9.45c-4.65,2.1-12.6,4.5-24.15,4.5-22.35,0-35.7-14.7-35.7-36.6s12.9-39.14,34.05-39.14c23.7,0,30,20.84,30,34.19a49.79,49.79,0,0,1-.45,6.15Zm38.7-9.45c.15-8.4-3.45-21.45-18.3-21.45-13.35,0-19.2,12.3-20.25,21.45Z"/><path d="M823.28,86.58c.15,4.5-3.15,8.1-8.4,8.1a7.85,7.85,0,0,1-8-8.1,8,8,0,0,1,8.25-8.25C820.13,78.33,823.28,81.93,823.28,86.58Zm-14.7,93V107h13.2v72.59Z"/><path d="M883.87,179.57l-1-9.15h-.44c-4,5.7-11.85,10.8-22.2,10.8-14.7,0-22.2-10.35-22.2-20.85,0-17.55,15.6-27.15,43.64-27v-1.5c0-6-1.65-16.8-16.5-16.8a36.16,36.16,0,0,0-18.89,5.4l-3-8.7c6-3.89,14.7-6.44,23.85-6.44,22.19,0,27.59,15.14,27.59,29.69v27.15a102.22,102.22,0,0,0,1.2,17.4Zm-2-37c-14.39-.3-30.74,2.25-30.74,16.35,0,8.55,5.7,12.6,12.44,12.6a18.05,18.05,0,0,0,17.55-12.15,13.78,13.78,0,0,0,.75-4.2Z"/><path d="M365,313.67a46.25,46.25,0,0,0,23.4,6.6c13.35,0,21.15-7,21.15-17.25,0-9.45-5.4-14.85-19.05-20.1-16.5-5.85-26.7-14.39-26.7-28.64,0-15.75,13.05-27.45,32.7-27.45,10.35,0,17.85,2.4,22.35,4.95l-3.6,10.65a40.27,40.27,0,0,0-19.2-4.8c-13.8,0-19.05,8.25-19.05,15.15,0,9.45,6.15,14.1,20.1,19.49,17.1,6.61,25.8,14.85,25.8,29.7,0,15.6-11.55,29.1-35.4,29.1-9.75,0-20.4-2.85-25.8-6.45Z"/><path d="M453.38,290.27h.3c1.8-2.55,4.35-5.7,6.45-8.25l21.3-25h15.9l-28.05,29.84,32,42.75H485.18l-25.05-34.8-6.75,7.5v27.3H440.33V223.08h13.05Z"/><path d="M576.38,292.67c0,26.85-18.6,38.55-36.15,38.55-19.65,0-34.8-14.4-34.8-37.35,0-24.29,15.9-38.54,36-38.54C562.28,255.33,576.38,270.47,576.38,292.67Zm-57.6.75c0,15.9,9.15,27.9,22.05,27.9,12.6,0,22-11.85,22-28.2,0-12.3-6.15-27.89-21.75-27.89S518.78,279.62,518.78,293.42Z"/><path d="M593,223.08h13.2V329.57H593Z"/><path d="M635.78,295.67c.3,17.85,11.7,25.2,24.9,25.2,9.45,0,15.15-1.65,20.1-3.75l2.25,9.45c-4.65,2.1-12.6,4.5-24.15,4.5-22.35,0-35.7-14.7-35.7-36.6s12.9-39.14,34.05-39.14c23.7,0,30,20.84,30,34.19a49.79,49.79,0,0,1-.45,6.15Zm38.7-9.45c.15-8.4-3.45-21.44-18.3-21.44-13.35,0-19.2,12.29-20.25,21.44Z"/><path d="M698.63,321.77c0-5.55,3.75-9.45,9-9.45s8.85,3.9,8.85,9.45-3.45,9.45-9,9.45C702.23,331.22,698.63,327.17,698.63,321.77Z"/><path d="M732.83,276.62c0-7.5-.15-13.64-.6-19.64h11.7l.75,12h.3c3.6-6.89,12-13.64,24-13.64,10,0,25.65,6,25.65,30.89v43.35h-13.2V287.72c0-11.7-4.35-21.44-16.8-21.44-8.7,0-15.45,6.14-17.7,13.49a19,19,0,0,0-.9,6.15v43.65h-13.2Z"/><path d="M881.77,292.67c0,26.85-18.59,38.55-36.14,38.55-19.65,0-34.8-14.4-34.8-37.35,0-24.29,15.9-38.54,36-38.54C867.68,255.33,881.77,270.47,881.77,292.67Zm-57.59.75c0,15.9,9.15,27.9,22.05,27.9,12.6,0,22-11.85,22-28.2,0-12.3-6.15-27.89-21.75-27.89S824.18,279.62,824.18,293.42Z"/></svg>